<?xml version="1.0" encoding="UTF-8"?>
<svg id="_1080_x_1080_px_Logo_1" data-name="1080 x 1080 px Logo 1" xmlns="http://www.w3.org/2000/svg" viewBox="0 0 1080 1080">
  <defs>
    <style>
      .cls-1 {
        fill: #fff;
      }

      .cls-2 {
        fill: #f0bd47;
      }
    </style>
  </defs>
  <g id="Logo">
    <path class="cls-2" d="M1003.67,602.52l-927.36.11s-.04-11.79-.04-12.66c272.05.03,544.1.03,816.15.13,32.75.01,66.12-.08,99.41.02,2.95,0,11.9.11,11.9.11l-.07,12.28Z"/>
    <path class="cls-1" d="M350.71,651.29c8.76.45,46.3-1.18,52.9,1.02,22.12,7.37,23.49,39.98,2,49.34l19.58,29.43h-20.68s-17.32-27.47-17.32-27.47h-17.43c-.06,9.68.03,27.47.03,27.47h-.22s-18.8,0-18.8,0l-.05-79.79ZM369.73,687.24c45.61,6.42,45.19-27.17,0-21.17v21.17Z"/>
    <polygon class="cls-1" points="805.34 666.09 805.27 684.38 843.65 684.4 843.66 697.68 805.34 697.81 805.34 714.72 849.74 714.72 849.74 729.52 788.42 729.52 788.42 651.29 849.14 651.26 849.08 665.93 805.34 666.09"/>
    <polygon class="cls-1" points="299.76 651.26 299.76 665.94 255.92 665.94 255.92 684.4 294.15 684.3 294.15 697.59 255.8 697.59 255.8 714.55 299.57 714.61 299.57 729.42 238.25 729.42 238.25 651.18 299.76 651.26"/>
    <path class="cls-1" d="M914.27,673.09c-.33,1.31,1.88,4.29,3.23,4.96,16.4,9.48,46.94,4.06,44.37,31.5-2.64,28.31-47.03,23.33-65.25,13.81.24-24.77,12.88-9.53,26.23-8.26,7.66.73,24.12,1.36,19.78-9.17-4.95-12.01-51.77-3.23-45.71-37.91,3.95-22.62,47.09-22.24,62.04-10.06l-6.72,12.49c-12.63-4.31-35.18-8.39-37.98,2.65Z"/>
    <path class="cls-1" d="M181.37,670.16c-3.31,2.39-21.28-11.14-34.45-3.8-20.49,11.43,23.8,17.41,29.76,20.44,10.96,5.57,13.43,15.04,11.15,26.82-3.93,20.22-51.75,20.48-63.61,6.42l2.36-13.79c7.09,4.59,44.41,15.83,44.5,1.09.08-14.06-47.89-5.08-48.4-33.81-.49-27.06,45.38-30.07,62.2-15.94l-3.52,12.57Z"/>
    <path class="cls-1" d="M481.34,651.26l24.79,55.03c3.59,0,23.75-55.03,23.75-55.03h19.62l-34.21,79.82h-18.37l-34.11-79.78,18.55-.04Z"/>
    <path class="cls-1" d="M733.09,670.02c-21.27-8.2-53.17-8.01-50.49,22.51,2.03,23.08,30.66,28.05,47.41,16.03,2.57,2.17,11.4,10.43,7.62,13.51-19.02,15.53-61.11,9.08-70.77-15.83-17.83-45.98,39.82-75,72.89-45.43l-6.67,9.21Z"/>
    <polygon class="cls-1" points="612.91 651.29 612.85 731.07 596.06 731.07 596 651.29 612.91 651.29"/>
    <line class="cls-1" x1="369.73" y1="687.24" x2="369.73" y2="666.08"/>
  </g>
  <polygon class="cls-1" points="999.31 539.45 842.83 539.45 873.49 493.79 925.3 493.79 878.8 402.47 812.17 539.45 711.73 539.45 711.73 433.6 637.74 543.2 561.88 434.81 562.05 539.38 512.94 539.38 513.19 348.7 563.51 348.7 636.66 462.62 711.26 348.7 759.9 348.7 760.72 536.73 855.55 348.7 905.29 348.7 999.31 539.45"/>
  <polygon class="cls-1" points="509.68 539.39 355.31 539.39 382.91 494.51 435.98 494.51 393.23 399.41 324.29 539.47 225.7 538.96 141.78 455.78 124.83 468.55 124.83 539.39 78.31 539.39 78.28 348.93 125.03 348.93 125.22 437.56 227.42 348.93 287.65 348.93 287.58 360.46 192.51 438.98 278.14 524.58 364.44 348.93 419.56 348.93 509.68 539.39"/>
</svg>